<svg xmlns="http://www.w3.org/2000/svg" viewBox="0 0 1752.63 1209.53"><defs><style>.cls-1{opacity:0.3;}.cls-2,.cls-3{fill:#3aa4dd;}.cls-3{fill-rule:evenodd;}</style></defs><g id="Layer_2" data-name="Layer 2"><g id="Layer_1-2" data-name="Layer 1"><g id="c" class="cls-1"><polygon class="cls-2" points="1375.98 1155.51 238.14 1121.85 238.2 1119.87 1376.04 1153.54 1375.98 1155.51"/><polygon class="cls-2" points="1424.03 1156.93 1393.59 1156.03 1393.64 1154.06 1424.08 1154.96 1424.03 1156.93"/><polygon class="cls-2" points="1751.37 1166.61 1705.53 1165.25 1705.59 1163.28 1751.42 1164.64 1751.37 1166.61"/><polygon class="cls-2" points="1705.54 1131.26 1751.38 1130.2 1751.42 1132.18 1705.57 1133.24 1705.54 1131.26"/><polygon class="cls-2" points="238.15 1165.28 823.13 1151.72 823.17 1153.69 238.19 1167.25 238.15 1165.28"/><rect class="cls-2" x="1705.52" y="1139.01" width="45.85" height="1.97" transform="translate(-23.11 35.84) rotate(-1.18)"/><polygon class="cls-2" points="1098.01 1151.96 1687.54 1139.82 1687.57 1141.79 1098.05 1153.93 1098.01 1151.96"/><rect class="cls-2" x="406.03" y="1161.92" width="417.16" height="1.97" transform="translate(-23.82 12.9) rotate(-1.18)"/><rect class="cls-2" x="238.19" y="1169.15" width="51.07" height="1.97" transform="translate(-24.04 5.68) rotate(-1.18)"/><polygon class="cls-2" points="1705.55 1172.16 1751.39 1171.69 1751.4 1173.66 1705.57 1174.13 1705.55 1172.16"/><polygon class="cls-2" points="1462.26 1174.67 1664.31 1172.59 1664.33 1174.55 1462.28 1176.63 1462.26 1174.67"/><rect class="cls-2" x="1393.57" y="1175.27" width="30.45" height="1.97" transform="translate(-12.04 14.57) rotate(-0.59)"/><polygon class="cls-2" points="406.07 1185.54 1376 1175.55 1376.02 1177.52 406.09 1187.51 406.07 1185.54"/><polygon class="cls-2" points="174.37 1187.92 391.93 1185.69 391.95 1187.66 174.39 1189.89 174.37 1187.92"/><polygon class="cls-2" points="117.56 1188.51 159.27 1188.08 159.29 1190.05 117.58 1190.48 117.56 1188.51"/><rect class="cls-2" x="137.46" y="1089.85" width="1.97" height="41.7" transform="translate(-976.11 1213.6) rotate(-88.17)"/><rect class="cls-2" x="497.77" y="797.7" width="1.97" height="649.1" transform="translate(-638.85 1584.91) rotate(-88.17)"/><rect class="cls-2" x="1235.99" y="1006.8" width="1.97" height="278.12" transform="translate(52.2 2345.62) rotate(-88.17)"/><rect class="cls-2" x="1562.45" y="1055.23" width="1.57" height="202.15" transform="translate(357.6 2681.82) rotate(-88.17)"/><rect class="cls-2" x="1727.48" y="1138.7" width="1.97" height="45.86" transform="translate(512.23 2852.11) rotate(-88.17)"/><polygon class="cls-2" points="823.09 1063.78 174.32 1023.22 174.44 1021.25 823.21 1061.81 823.09 1063.78"/><polygon class="cls-2" points="1687.5 1117.83 1097.97 1080.97 1098.09 1079 1687.61 1115.85 1687.5 1117.83"/><polygon class="cls-2" points="1751.34 1121.82 1705.5 1118.95 1705.62 1116.98 1751.45 1119.85 1751.34 1121.82"/><polygon class="cls-2" points="1705.54 1123.09 1751.37 1121.91 1751.42 1123.87 1705.58 1125.06 1705.54 1123.09"/><polygon class="cls-2" points="1098.01 1138.93 1687.54 1123.75 1687.57 1125.32 1098.05 1140.51 1098.01 1138.93"/><polygon class="cls-2" points="406.06 1156.56 823.12 1145.82 823.17 1147.79 406.1 1158.53 406.06 1156.56"/><polygon class="cls-2" points="312.27 1158.98 391.92 1156.93 391.96 1158.9 312.32 1160.95 312.27 1158.98"/><polygon class="cls-2" points="1098.03 1185.23 1424.06 1182.71 1424.06 1184.29 1098.03 1186.8 1098.03 1185.23"/><polygon class="cls-2" points="406.08 1190.37 823.14 1187.15 823.15 1189.12 406.08 1192.34 406.08 1190.37"/><polygon class="cls-2" points="312.29 1191.09 391.94 1190.48 391.94 1192.45 312.3 1193.06 312.29 1191.09"/><polygon class="cls-2" points="174.38 1192.16 289.23 1191.27 289.23 1193.24 174.38 1194.13 174.38 1192.16"/><polygon class="cls-2" points="342.4 1154.61 117.55 1150.37 117.59 1148.4 342.43 1152.64 342.4 1154.61"/><polygon class="cls-2" points="823.13 1163.68 406.07 1155.81 406.1 1153.84 823.16 1161.71 823.13 1163.68"/><polygon class="cls-2" points="1376 1173.91 1098.02 1168.67 1098.04 1167.09 1376.02 1172.34 1376 1173.91"/><rect class="cls-2" x="1407.94" y="1158.59" width="1.97" height="30.45" transform="translate(208.76 2560.37) rotate(-88.92)"/><polygon class="cls-2" points="289.3 1157.5 117.59 1154.5 117.62 1152.53 289.34 1155.52 289.3 1157.5"/><polygon class="cls-2" points="823.13 1166.83 406.07 1159.54 406.1 1157.57 823.16 1164.86 823.13 1166.83"/><polygon class="cls-2" points="1376 1176.3 1098.02 1171.44 1098.04 1169.87 1376.02 1174.73 1376 1176.3"/><rect class="cls-2" x="1407.85" y="1160.87" width="1.97" height="30.45" transform="translate(208.33 2564.19) rotate(-89)"/><polygon class="cls-2" points="1693.66 1182.05 1664.3 1181.54 1664.33 1179.57 1693.69 1180.09 1693.66 1182.05"/><polygon class="cls-2" points="1705.54 1147.63 1751.38 1146.8 1751.41 1148.77 1705.57 1149.6 1705.54 1147.63"/><rect class="cls-2" x="1462.2" y="1150.46" width="202.08" height="1.57" transform="translate(-20.44 28.29) rotate(-1.03)"/><polygon class="cls-2" points="1098.02 1158.77 1376 1153.76 1376.02 1155.34 1098.04 1160.35 1098.02 1158.77"/><polygon class="cls-2" points="85.04 1176.84 823.13 1163.53 823.16 1165.5 85.07 1178.81 85.04 1176.84"/><rect class="cls-2" x="240.03" y="1144.65" width="1.97" height="96.42" transform="translate(-953.7 1424.5) rotate(-89.55)"/><rect class="cls-2" x="566.71" y="939.96" width="1.97" height="510.87" transform="translate(-632.13 1753.69) rotate(-89.55)"/><polygon class="cls-2" points="289.21 1182.48 117.59 1179.21 117.62 1177.24 289.25 1180.51 289.21 1182.48"/><polygon class="cls-2" points="1751.52 1080.81 805.08 993.1 805.26 991.15 1751.69 1078.85 1751.52 1080.81"/><rect class="cls-2" x="158.29" y="966.47" width="1.98" height="239.35"/><polygon class="cls-2" points="1751.89 393.52 1511.01 454.33 1511.03 1205.83 1509.06 1205.83 1509.04 453.56 1509.04 452.79 1509.78 452.6 1751.41 391.61 1751.89 393.52"/><polygon class="cls-2" points="1392.6 1205.83 1392.62 425.31 1022.8 257.21 1023.61 255.41 1394.01 423.77 1394.59 424.03 1394.59 424.67 1394.57 1205.83 1392.6 1205.83"/><path class="cls-2" d="M1350.54,462.74V368.52l1.41.67,194.72,92.48.57.27v84.51l-1.37-.58-194.72-82.23-.61-.25v-.65Zm2-91.1v90.45l192.75,81.4V463.2l-192.75-91.55Z"/><rect class="cls-2" x="854.98" y="146.26" width="1.98" height="1059.57"/><rect class="cls-2" x="1148.74" y="284.19" width="1.98" height="921.64"/><rect class="cls-2" x="1172.86" y="295.54" width="1.98" height="910.28"/><polygon class="cls-2" points="822.85 901.51 247.79 824.78 248.04 822.83 823.1 899.55 822.85 901.51"/><polygon class="cls-2" points="823.02 923.18 169.6 842.18 169.84 840.22 823.26 921.23 823.02 923.18"/><rect class="cls-2" x="555.2" y="581.7" width="1.97" height="539.02" transform="translate(-363.39 1285.12) rotate(-82.1)"/><rect class="cls-2" x="600.01" y="603.47" width="1.97" height="449.33" transform="translate(-307.37 1299.18) rotate(-81.44)"/><polygon class="cls-2" points="116.62 1006.76 116.61 898.07 116.61 897.26 117.41 897.1 823.03 760.11 823.4 762.05 118.58 898.88 118.58 1006.76 116.62 1006.76"/><rect class="cls-2" x="227.98" y="909.54" width="1.98" height="104.61"/><rect class="cls-2" x="237.21" y="932.63" width="1.98" height="273.2"/><rect class="cls-2" x="191.99" y="934.07" width="1.58" height="271.75"/><rect class="cls-2" x="226.15" y="875.47" width="384.11" height="1.97" transform="translate(-144.6 85.05) rotate(-9.91)"/><polygon class="cls-2" points="217.81 835.22 1546.15 543.94 1546.56 545.87 218.23 837.15 217.81 835.22"/><polygon class="cls-2" points="1751.81 491.09 1723.94 497.29 1723.94 1205.83 1722.36 1205.83 1722.36 496.66 1722.36 496.03 1722.98 495.89 1751.47 489.56 1751.81 491.09"/><polygon class="cls-2" points="1751.7 984.08 174.68 1093.19 174.54 1091.22 1751.57 982.11 1751.7 984.08"/><polygon class="cls-2" points="736.5 1104.43 402.82 1090.05 401.88 1090.01 401.88 1089.07 401.97 746.01 401.97 745.24 402.72 745.05 530.23 713.71 530.7 715.62 403.94 746.78 403.85 1088.12 736.58 1102.46 736.5 1104.43"/><polygon class="cls-2" points="402.89 1088.1 822.55 1061.92 822.67 1063.89 403.01 1090.08 402.89 1088.1"/><polygon class="cls-2" points="1375.02 1205.83 1375.02 1121.63 1375.02 1120.64 1376.01 1120.64 1393.61 1120.64 1393.61 1122.62 1377 1122.62 1377 1205.83 1375.02 1205.83"/><polygon class="cls-2" points="1423.07 1205.83 1423.07 1150.61 1423.07 1149.62 1424.06 1149.62 1462.27 1149.62 1463.26 1149.62 1463.26 1150.61 1463.26 1205.83 1461.28 1205.83 1461.28 1151.6 1425.05 1151.6 1425.05 1205.83 1423.07 1205.83"/><polygon class="cls-2" points="1663.33 1205.83 1663.33 1147.67 1663.33 1146.68 1664.32 1146.68 1693.68 1146.68 1694.66 1146.68 1694.66 1147.67 1694.66 1205.83 1692.69 1205.83 1692.69 1148.66 1665.31 1148.66 1665.31 1205.83 1663.33 1205.83"/><polygon class="cls-2" points="1686.57 1147.67 1686.57 1110.86 1686.57 1109.87 1687.56 1109.87 1705.56 1109.87 1706.55 1109.87 1706.55 1110.86 1706.55 1205.83 1704.57 1205.83 1704.57 1111.84 1688.54 1111.84 1688.54 1147.67 1686.57 1147.67"/><rect class="cls-2" x="822.21" y="818.17" width="1.97" height="389.92"/><rect class="cls-2" x="1096.69" y="771.65" width="2.96" height="434.17"/><rect class="cls-2" x="1083.45" y="773.98" width="1.98" height="431.84"/><polygon class="cls-2" points="735.57 1205.62 735.58 803.48 402.7 746.95 403.03 745.01 736.73 801.68 737.55 801.82 737.55 802.65 737.54 1205.62 735.57 1205.62"/><polygon class="cls-2" points="47.72 1205.83 47.72 922.03 47.72 920.95 48.79 921.05 805.26 991.15 805.08 993.1 49.69 923.11 49.69 1205.83 47.72 1205.83"/><polygon class="cls-2" points="0 1206.67 0 901.81 0 901 0.79 900.84 27.02 895.46 27.32 895.44 805.42 973.63 805.23 975.59 27.27 897.41 1.98 902.6 1.98 1206.67 0 1206.67"/></g><g id="e" class="cls-1"><polygon class="cls-2" points="999.53 879.49 895.57 893.28 895.56 1205.83 893.6 1205.83 893.6 892.42 893.6 891.56 894.46 891.44 999.27 877.54 999.53 879.49"/><polygon class="cls-2" points="117.48 1005.78 822.72 917.22 822.97 919.18 117.72 1007.74 117.48 1005.78"/><polygon class="cls-2" points="228.89 1013.16 823.63 945.96 823.84 947.93 229.1 1015.12 228.89 1013.16"/><rect class="cls-2" x="600.02" y="304.98" width="1.97" height="459.74" transform="translate(-70.94 977.3) rotate(-75.03)"/><rect class="cls-2" x="555.09" y="301.74" width="1.97" height="549.91" transform="translate(-136.83 978.8) rotate(-76.17)"/><rect class="cls-2" x="534.39" y="299.72" width="1.97" height="591.56" transform="translate(-167.52 979.16) rotate(-76.67)"/><rect class="cls-2" x="495.68" y="295.61" width="1.97" height="669.07" transform="translate(-225.55 979.66) rotate(-77.58)"/><polygon class="cls-2" points="823.04 642 219 790.95 219.01 836.19 217.04 836.19 217.03 790.18 217.03 789.41 217.78 789.22 822.57 640.09 823.04 642"/><polygon class="cls-2" points="215.96 869.56 117.42 858.09 116.54 857.99 116.54 857.11 116.6 718.42 116.6 717.69 117.3 717.48 431.56 620.87 432.14 622.75 118.57 719.15 118.51 856.23 216.19 867.6 215.96 869.56"/><rect class="cls-2" x="113.75" y="821.54" width="321.78" height="1.97" transform="translate(-170.35 78.24) rotate(-12.41)"/><rect class="cls-2" x="213.67" y="845.84" width="220.32" height="1.98" transform="translate(-160.19 80.21) rotate(-11.34)"/><polygon class="cls-2" points="1750.66 1205.83 1750.66 393.12 1538.82 266.4 1538.93 1205.83 1536.96 1205.83 1536.85 264.67 1536.85 262.93 1538.34 263.82 1752.15 391.71 1752.63 392 1752.63 392.56 1752.63 1205.83 1750.66 1205.83"/><polygon class="cls-2" points="1173.53 294.66 1437.57 203.91 1438.21 205.77 1174.17 296.53 1173.53 294.66"/><rect class="cls-2" x="1272.47" y="303.46" width="272.91" height="1.97" transform="translate(-27.17 428.49) rotate(-17.13)"/><rect class="cls-2" x="992.99" y="104.31" width="1.98" height="438.03"/><rect class="cls-2" x="861.94" y="156.87" width="1.97" height="188.51" transform="translate(294.47 947.23) rotate(-66.99)"/><rect class="cls-2" x="1019.14" y="525.76" width="534.78" height="1.97" transform="translate(-88.69 323.28) rotate(-13.85)"/><polygon class="cls-2" points="1173.41 296.49 1149.2 285.11 1150.03 283.33 1174.25 294.71 1173.41 296.49"/><polygon class="cls-2" points="1268.48 291.64 1099.35 207.63 1100.22 205.86 1269.35 289.87 1268.48 291.64"/><rect class="cls-2" x="1226.73" y="137.08" width="1.97" height="359.86" transform="translate(417.12 1292.05) rotate(-64.74)"/><polygon class="cls-2" points="1393.24 516.35 1064.5 384.21 1065.23 382.38 1393.97 514.52 1393.24 516.35"/><rect class="cls-2" x="1207.29" y="269.66" width="1.97" height="397.44" transform="translate(334.99 1425.81) rotate(-68.82)"/><polygon class="cls-2" points="1046.69 437.76 826.53 504.91 995.87 556.62 995.3 558.51 822.87 505.85 822.87 503.97 1046.11 435.88 1046.69 437.76"/><polygon class="cls-2" points="1393.23 720.48 866.31 571.3 866.85 569.4 1393.77 718.58 1393.23 720.48"/><polygon class="cls-2" points="1285.27 440.63 949.57 534.06 949.02 534.05 775.95 480.22 775.26 480.01 775.26 479.28 775.18 371.92 775.18 371.24 775.82 371 1116.32 244.47 1117 246.31 777.15 372.61 777.22 478.56 949.33 532.08 1284.74 438.73 1285.27 440.63"/><polygon class="cls-2" points="1215.09 678.79 995.17 722.13 994.77 722.12 822.9 682.95 822.9 681.03 1046.22 629.96 1046.66 631.88 827.54 681.99 994.99 720.15 1214.71 676.85 1215.09 678.79"/><path class="cls-2" d="M1075.2,1165.45l-230.32,3.75-1,0v-292l.85-.12,230.32-32.64,1.13-.16v321.1h-1Zm-229.35,1.77,228.35-3.71V846.62L845.85,879Z"/><rect class="cls-2" x="390.63" y="479.01" width="1.98" height="318.13"/><rect class="cls-2" x="258.29" y="529.97" width="1.98" height="296.62"/><rect class="cls-2" x="165.89" y="676.35" width="1.97" height="100.13" transform="translate(-576.92 774.48) rotate(-80.76)"/><rect class="cls-2" x="735.87" y="793.73" width="87.55" height="1.97" transform="translate(-130.32 153.32) rotate(-10.37)"/><polygon class="cls-2" points="215.83 733.64 431.4 673.31 431.92 675.21 216.36 735.54 215.83 733.64"/><rect class="cls-2" x="166.06" y="1085.66" width="1.97" height="98.87" transform="translate(-971.74 1274.76) rotate(-88.62)"/><rect class="cls-2" x="215.63" y="734.66" width="1.98" height="133.67"/><rect class="cls-2" x="948.14" y="433.49" width="1.98" height="99.57"/><rect class="cls-2" x="948.25" y="287.86" width="1.97" height="110"/><rect class="cls-2" x="1277.57" y="344.72" width="1.98" height="861.11"/><polygon class="cls-2" points="736.52 1102.46 822.96 1098.45 823.05 1100.41 736.61 1104.43 736.52 1102.46"/><rect class="cls-2" x="1184.87" y="-26.21" width="1.97" height="461.44" transform="translate(457.22 1162.2) rotate(-62.52)"/><path class="cls-3" d="M815.5,959.89l.24,2.23,7.83-.84-.23-2.23Zm-17.7,1.9L798,964l7.84-.84-.24-2.23-7.84.84Zm-35.4,3.8.24,2.22,7.84-.84-.24-2.23-7.84.84ZM727,969.38l.24,2.23,7.83-.84-.23-2.23Zm-35.4,3.8.24,2.22,7.84-.84-.24-2.22ZM656.2,977l.24,2.23,7.83-.84-.24-2.23Zm-35.4,3.79L621,983l7.83-.84-.24-2.23-7.84.84Zm159.3-17.08.24,2.22,7.84-.84-.24-2.23-7.83.84Zm-35.4,3.79.24,2.23,7.84-.84-.24-2.22-7.84.84Zm-35.4,3.8.24,2.22,7.83-.84-.24-2.23-7.83.84Zm-35.4,3.8.24,2.22,7.84-.84-.24-2.23-7.84.84Zm-35.4,3.8.24,2.22,7.84-.84-.24-2.22Zm-35.4,3.79.23,2.23,7.84-.84-.24-2.22-7.83.84Zm997.75-107,.24,2.23,7.83-.84-.24-2.23Zm-17.7,1.89.23,2.23,7.84-.84-.24-2.23Zm-35.41,3.8.24,2.22,7.83-.84-.23-2.22Zm-35.4,3.79.24,2.23,7.84-.84-.24-2.23-7.83.84Zm-35.4,3.8.24,2.23,7.83-.84-.24-2.23-7.84.84Zm-35.4,3.79.24,2.23,7.83-.84-.24-2.23-7.84.84Zm-35.4,3.8.24,2.23,7.84-.84-.24-2.22-7.83.84Zm-35.4,3.8.24,2.23,7.83-.84-.24-2.23Zm-53.1,5.69.24,2.23,7.84-.84-.24-2.23-7.83.84Zm-70.8,7.59.24,2.23,7.83-.84-.24-2.22-7.83.84Zm-70.8,7.59.24,2.23,7.83-.84-.24-2.23-7.84.84Zm-70.8,7.59.24,2.23,7.83-.84-.24-2.23Zm-70.8,7.59.24,2.23,7.84-.84-.24-2.23ZM963.64,944l.24,2.23,7.84-.84-.24-2.23Zm-70.8,7.59.24,2.23,7.83-.84-.24-2.23Zm672.61-72.12.24,2.23,7.83-.84-.24-2.22-7.83.84Zm-35.4,3.79.24,2.23,7.84-.84-.24-2.23-7.83.84Zm-35.4,3.8.24,2.22,7.83-.84-.24-2.23-7.84.84Zm-35.4,3.79.24,2.23,7.83-.84-.24-2.23Zm-35.4,3.8.24,2.23,7.84-.84-.24-2.23Zm-35.4,3.8.24,2.22,7.84-.84-.24-2.23-7.84.84Zm-35.4,3.8.24,2.23,7.84-.84-.24-2.23Zm-70.8,7.59.24,2.23,7.84-.84-.24-2.23Zm-70.8,7.59.24,2.23,7.84-.84-.24-2.22-7.84.84Zm-70.8,7.6.24,2.22,7.84-.84-.24-2.22Zm-70.8,7.59.24,2.23,7.84-.84-.24-2.23Zm-70.8,7.59.23,2.23,7.84-.84-.24-2.22-7.83.84Zm-70.8,7.59.24,2.23,7.84-.84-.24-2.22-7.84.84Zm-70.8,7.59.24,2.23,7.83-.84-.24-2.23Zm477.9-51.24.24,2.23,7.83-.84-.24-2.23-7.84.84Zm-35.4,3.79.24,2.22,7.84-.84-.25-2.22Zm-35.4,3.79.24,2.23,7.83-.84-.24-2.23Zm-35.4,3.8.24,2.22,7.84-.84-.24-2.23-7.84.84Zm-35.4,3.79.24,2.23,7.83-.84-.24-2.23Zm-35.4,3.79.24,2.23,7.83-.84-.24-2.23-7.84.84Zm-35.4,3.8.24,2.23,7.84-.84-.24-2.23Zm-35.4,3.8.24,2.22,7.83-.84-.24-2.22Zm-35.4,3.79.24,2.22,7.83-.84-.24-2.23-7.83.84Zm-35.4,3.79.24,2.23,7.83-.84-.24-2.23-7.83.84Zm-35.4,3.79.24,2.23,7.83-.84-.23-2.23Zm-35.4,3.8.24,2.22,7.83-.84-.24-2.22Zm-35.4,3.79.24,2.23,7.83-.84-.24-2.23-7.84.84Zm-35.4,3.8.24,2.23,7.84-.84-.24-2.22-7.84.84Zm-35.4,3.79.24,2.23,7.83-.84-.24-2.23Zm910.55-97.63-7.84.84.24,2.23,7.84-.84Zm-25.54,2.74.24,2.23,7.84-.84-.24-2.23Zm-17.7,1.89.24,2.23,7.83-.84-.23-2.23Zm-17.7,1.9.23,2.23,7.84-.84-.24-2.23Zm-17.7,1.9.24,2.23,7.83-.84-.24-2.23ZM1654,870l.24,2.23,7.83-.84-.24-2.23Zm-17.7,1.9.23,2.23,7.84-.84-.24-2.23Zm-17.7,1.9.24,2.23,7.84-.84-.24-2.22-7.83.84Z"/><path class="cls-3" d="M1747.74,736.73l-7.8,1.13.32,2.21,7.8-1.13Zm-25.41,3.69.32,2.22,7.8-1.14-.33-2.21-7.8,1.13ZM1704.71,743l.32,2.22,7.8-1.13-.32-2.21-7.8,1.13Zm-17.62,2.56.33,2.21,7.79-1.13-.32-2.22-7.8,1.14Zm-17.62,2.56.32,2.22,7.8-1.13-.32-2.22Zm-17.61,2.57.32,2.21,7.8-1.13-.32-2.21-7.79,1.13Zm-17.62,2.56.32,2.22,7.8-1.13-.32-2.22Z"/><path class="cls-3" d="M1568,646.25l.4,2.2,7.75-1.44-.4-2.2-7.75,1.43Zm-17.51,3.22.4,2.21,7.75-1.43-.41-2.2-7.75,1.42Zm-35,6.44.41,2.21,7.75-1.42-.4-2.21-7.75,1.42Zm-35,6.45.4,2.2,7.75-1.43-.41-2.2-7.75,1.43Zm-35,6.44.41,2.2,7.75-1.42-.4-2.21-7.75,1.43Zm-35,6.44.41,2.2,7.75-1.42-.4-2.2-7.75,1.43Zm-35,6.44.4,2.2,7.75-1.43-.41-2.2-7.75,1.43Zm-35,6.44.4,2.2,7.75-1.43-.41-2.2-7.75,1.43Zm-52.53,9.66.41,2.2,7.75-1.42-.41-2.2Zm-70,12.88.41,2.21,7.75-1.43-.4-2.2-7.75,1.42Zm-70,12.89.4,2.2,7.75-1.43-.41-2.2-7.75,1.42Zm385.17-70.86.4,2.2,7.75-1.42-.41-2.2-7.75,1.42Zm-35,6.44.4,2.2,7.75-1.43-.41-2.2-7.75,1.43Zm-35,6.44.4,2.2,7.75-1.43-.4-2.2Zm-35,6.44.4,2.21,7.76-1.43-.41-2.2-7.75,1.43Zm-35,6.44.4,2.21,7.76-1.43-.41-2.2Zm-35,6.44.41,2.2,7.75-1.43-.41-2.2-7.75,1.42Zm-35,6.45.41,2.2,7.75-1.43-.41-2.2Zm-70,12.88.41,2.21,7.75-1.43-.41-2.2Zm-70,12.89.41,2.21,7.75-1.43-.41-2.2Zm-70,12.88.41,2.2,7.75-1.43-.41-2.2-7.75,1.42Zm192.58-35.43.4,2.21,7.75-1.43-.4-2.2Zm-35,6.44.4,2.2,7.75-1.43-.41-2.2-7.75,1.43Zm-35,6.44.41,2.2,7.75-1.42L1243,706Zm-35,6.44.41,2.21,7.75-1.42-.41-2.21-7.75,1.43Zm-35,6.44.4,2.2,7.75-1.42-.41-2.2-7.75,1.42Zm-35,6.44.4,2.21,7.75-1.43-.41-2.2-7.75,1.43ZM1750.74,612.6,1743,614l.41,2.2,7.75-1.43Zm-25.26,4.65.4,2.2,7.75-1.42-.4-2.2-7.75,1.43ZM1708,620.47l.41,2.21,7.75-1.43-.41-2.2Zm-17.51,3.22.41,2.2,7.75-1.42-.4-2.2-7.75,1.42ZM1673,626.91l.41,2.2,7.75-1.43-.41-2.2Zm-17.51,3.22.41,2.2,7.75-1.42-.41-2.21Zm-17.51,3.22.4,2.2,7.75-1.43-.4-2.2Zm-17.51,3.22.4,2.2,7.75-1.43-.41-2.2-7.75,1.43Zm-17.51,3.22.4,2.2,7.75-1.42-.41-2.21-7.75,1.43ZM1585.4,643l.4,2.2,7.75-1.43-.4-2.2Z"/><polygon class="cls-2" points="638.95 1206.21 640.92 1206.21 640.93 871.26 638.97 871.57 638.95 1206.21"/><polygon class="cls-2" points="640.95 442.23 640.95 441.5 640.26 441.29 607.74 431.24 607.16 433.13 638.98 442.96 638.97 849.34 640.93 849.01 640.95 442.23"/></g><g id="g" class="cls-1"><rect class="cls-2" x="1212.75" y="894.77" width="1.58" height="310.85"/><rect class="cls-2" x="1403.28" y="925.68" width="1.58" height="279.94"/><rect class="cls-2" x="1654.79" y="990.2" width="1.58" height="215.42"/><rect class="cls-2" x="1052.56" y="834.71" width="1.58" height="370.91"/><rect class="cls-2" x="832.97" y="867" width="1.58" height="338.62"/><rect class="cls-2" x="1106.97" y="877.32" width="1.58" height="328.3"/><rect class="cls-2" x="615.88" y="899.36" width="1.58" height="306.26"/><rect class="cls-2" x="420.08" y="992.5" width="1.58" height="213.12"/><rect class="cls-2" x="326.95" y="921.32" width="1.58" height="288.21"/><rect class="cls-2" x="615.88" y="538.81" width="1.58" height="314.17"/><polygon class="cls-2" points="1230.51 1205.83 1230.51 975.26 1230.51 974.14 1231.61 974.28 1264.19 978.27 1263.95 980.23 1232.48 976.38 1232.48 1205.83 1230.51 1205.83"/><polygon class="cls-2" points="159.22 1037 118.56 1034.65 118.58 1205.83 116.61 1205.83 116.59 1033.61 116.59 1032.57 117.63 1032.62 159.33 1035.03 159.22 1037"/><polygon class="cls-2" points="228.92 1015.15 117.52 1007.74 117.65 1005.77 229.05 1013.18 228.92 1015.15"/><rect class="cls-2" x="172.32" y="847.88" width="1.97" height="111.92" transform="translate(-743.51 983.8) rotate(-84.13)"/><rect class="cls-2" x="1142.83" y="883.39" width="1.98" height="322.62"/><path class="cls-2" d="M846.06,662.82V780.45l134.14-24.6V631.28L846.06,662.82Zm-2,118.81V661.25l.76-.18,136.12-32,1.21-.29v128.7l-.81.15-136.12,25-1.16.21v-1.18Z"/><path class="cls-2" d="M1047.27,438.29V630.2l166.54,46.36V500.3l-166.54-62Zm-2,192.66V435.45l1.33.5,168.51,62.75.64.24V679.15l-1.25-.35L1046,631.89l-.72-.21V631Z"/><rect class="cls-2" x="1186.21" y="387.09" width="1.97" height="431.89" transform="matrix(0.3, -0.95, 0.95, 0.3, 256.9, 1555.73)"/><path class="cls-2" d="M1117.37,246.55V368.46l166.54,69.85V326.75l-166.54-80.21h0Zm-2,122.57V243.41l1.42.68,168.51,81.17.56.27V441.29l-1.37-.57L1116,370l-.61-.25v-.66Z"/><rect class="cls-2" x="1448.01" y="279.65" width="1.98" height="115.04"/><polygon class="cls-2" points="1390.23 409.73 1462.43 389.64 1462.95 391.54 1390.75 411.63 1390.23 409.73"/><polygon class="cls-2" points="1697.67 507.52 1630.55 522.34 1629.93 522.27 1545.83 483.43 1546.66 481.64 1630.46 520.34 1697.24 505.59 1697.67 507.52"/><polygon class="cls-2" points="1462.58 276.48 1391.41 299.09 1391.05 409.9 1546.64 481.63 1545.81 483.42 1389.65 411.42 1389.08 411.16 1389.08 410.53 1389.45 298.37 1389.45 297.66 1390.14 297.44 1461.99 274.6 1462.58 276.48"/><rect class="cls-2" x="1566.17" y="320.63" width="1.97" height="262.56" transform="translate(473.35 1661.78) rotate(-63.97)"/><rect class="cls-2" x="1525.65" y="267.93" width="1.98" height="937.9"/><rect class="cls-2" x="937.62" y="222.67" width="359.16" height="1.97" transform="translate(-6.51 411.89) rotate(-20.83)"/><rect class="cls-2" x="1083.45" y="7.65" width="1.98" height="766.34"/><rect class="cls-2" x="998.42" y="842.32" width="1.98" height="363.51"/><rect class="cls-2" x="713.75" y="859.55" width="1.98" height="346.28"/><rect class="cls-2" x="940.02" y="340.39" width="354.36" height="1.97" transform="translate(-50.59 371.93) rotate(-18.49)"/><path class="cls-2" d="M1117.37,65V199.88l166.54,83.93V160.37L1117.37,65Zm-2,135.5V61.58l1.48.85L1285.39,159l.5.29V287l-1.43-.72L1116,201.38l-.54-.27v-.61Z"/><polygon class="cls-2" points="1060.82 242.58 865.63 150.77 866.46 148.99 1061.66 240.79 1060.82 242.58"/><polygon class="cls-2" points="775.97 478.34 1116.21 368.17 1116.81 370.05 776.57 480.21 775.97 478.34"/><rect class="cls-2" x="861.56" y="310.93" width="1.97" height="183.61" transform="translate(193.21 1079.62) rotate(-70.35)"/><polygon class="cls-2" points="775.9 331.88 1116.13 199.51 1116.84 201.34 776.61 333.71 775.9 331.88"/><polygon class="cls-2" points="948.86 398.46 775.78 333.75 775.14 333.51 775.14 332.83 775.24 214.29 775.24 213.65 775.82 213.39 1116.35 62.89 1117.14 64.7 777.2 214.93 777.11 332.15 949.55 396.62 948.86 398.46"/><polygon class="cls-2" points="948.81 432.69 1284.57 325.4 1285.17 327.28 949.4 434.56 948.81 432.69"/><path class="cls-2" d="M1461.53,390.59V273.89l1.47.83,234.78,132.47.51.29V508.27l-1.42-.7L1462.09,391.48l-.55-.27v-.61h0Zm2-113.33V390l232.81,115.12V408.61Z"/><rect class="cls-2" x="26.26" y="896.36" width="1.98" height="310.31"/><polygon class="cls-2" points="855.53 147.14 822.76 131.74 823.59 129.96 856.36 145.36 855.53 147.14"/><polygon class="cls-2" points="217.92 791.15 26.95 763.72 27.23 761.76 218.2 789.19 217.92 791.15"/><path class="cls-2" d="M341.45,1153.6v-86.73l-122.72,9.49v80.72l122.72-3.48Zm2-87.8v89.72l-1,0-124.69,3.54-1,0v-84.58l.92-.07,124.69-9.65,1.06-.08v1.07Z"/><rect class="cls-2" x="533.04" y="48.14" width="1.97" height="182.25"/><polygon class="cls-2" points="431.41 279.29 533.6 229.5 533.98 229.32 534.37 229.47 607.81 257.26 607.11 259.1 534.08 231.46 432.27 281.07 431.41 279.29"/><path class="cls-2" d="M534.08,49.24,432.82,107.8V279.48l71.52,24.71,102.12-46.64V81.49L534.08,49.24ZM431.34,106.38,533.53,47.29,534,47l.46.2L607.85,80l.59.26v178.6l-.58.26L504.8,306.14l-.73,0-72.55-25.06-.67-.23V106.66l.49-.28Z"/><rect class="cls-2" x="520.09" y="569.42" width="845.6" height="1.97" transform="translate(-114.26 259.23) rotate(-14.77)"/><rect class="cls-2" x="20.46" y="757.47" width="418.35" height="1.97" transform="translate(-185.77 83.61) rotate(-14.77)"/><polygon class="cls-2" points="432.12 643.66 28.21 763.39 28.19 810.93 218.24 835.22 217.99 837.17 27.09 812.78 26.23 812.67 26.23 811.8 26.24 762.66 26.24 761.92 26.95 761.71 431.56 641.76 432.12 643.66"/><polygon class="cls-2" points="1351.73 371.04 534.3 613.36 533.75 611.47 1351.18 369.15 1351.73 371.04"/><rect class="cls-2" x="173.39" y="1010.55" width="1.98" height="195.28"/><rect class="cls-2" x="288.25" y="1156.12" width="1.98" height="49.71"/><polygon class="cls-2" points="84.03 1205.83 84.05 1165.82 84.05 1164.85 85.01 1164.83 289.21 1159.57 289.26 1161.54 86.02 1166.78 86 1205.83 84.03 1205.83"/><rect class="cls-2" x="390.95" y="1153.13" width="1.97" height="52.7"/><rect class="cls-2" x="311.31" y="1155.61" width="1.97" height="50.21"/><rect class="cls-2" x="405.09" y="1152.77" width="1.98" height="53.05"/><polygon class="cls-2" points="430.56 1205.83 430.56 378.46 430.56 377.62 431.33 377.29 533.52 332.78 534.44 332.74 607.87 357.58 608.74 357.88 608.74 358.8 608.74 1205.83 606.17 1205.83 606.17 359.71 534.08 335.33 433.13 379.3 433.13 1205.83 430.56 1205.83"/><rect class="cls-2" x="532.74" y="333.95" width="2.57" height="871.87"/></g><g id="i" class="cls-1"><polygon class="cls-2" points="664.77 1205.83 664.77 1023.18 569.6 1031.38 569.6 1205.82 567.63 1205.82 567.63 1030.48 567.63 1029.57 568.54 1029.49 665.68 1021.12 666.74 1021.03 666.74 1022.1 666.75 1205.83 664.77 1205.83"/><path class="cls-2" d="M1024.06,257v138.6l39.91-13V241.77L1024.06,257Zm-2,140V255.64l.64-.24,41.88-16,1.34-.51V384.07l-.68.22-41.88,13.6-1.29.42V397Z"/><path class="cls-2" d="M867.49,150.94v417l112.22-30.58V100.17L867.49,150.94Zm-3,418.93V149l.87-.39L980.58,96.54l2.09-.94v444l-1.1.3L866.39,571.31l-1.87.51v-2Z"/><path class="cls-2" d="M290.6,511.59l0,301.42,87.14-19.41V477.13l-87.12,34.46h0Zm-2.39,302.89,0-303.7V510l.74-.29,89.48-35.4,1.62-.64V795.5l-.93.21-89.51,19.94-1.44.32v-1.49Z"/><path class="cls-2" d="M170.89,558.94V839.66l75.63-16.85,0-293.79L170.89,559h0Zm-2.37,282.19V557.33l.75-.3,78-30.86,1.62-.64v1.74l0,296.49v1l-.93.21L170,842.3l-1.44.32v-1.49Z"/><polygon class="cls-2" points="1263.23 102.11 1098.12 3.35 824.64 131.76 824.66 818.17 821.71 818.17 821.69 130.82 821.69 129.89 822.54 129.49 1097.58 0.34 1098.29 0 1098.97 0.41 1264.75 99.58 1263.23 102.11"/><polygon class="cls-2" points="1436.4 1205.83 1436.34 205.56 1360.26 160.04 1361.67 157.68 1438.43 203.6 1439.1 204 1439.1 204.78 1439.15 1205.83 1436.4 1205.83"/><rect class="cls-2" x="1096.69" y="1.67" width="2.96" height="769.99"/><rect class="cls-2" x="268.89" y="1035.22" width="2.37" height="84.8"/><path class="cls-2" d="M316.35,1122.59l-66.68,3.16h-.09L204,1124.46l-1.15,0v-1.14l0-81.57v-1.07l1.07-.1,66.06-6.48h.2l46.22,3.31,1.1.08v85.11l-1.13,0h0Zm-66.76.8,65.52-3.1v-80.65l-45-3.24-64.89,6.37,0,79.35,44.38,1.26Z"/><polygon class="cls-2" points="203.98 1122.09 270.02 1118.84 270.1 1118.84 316.32 1120.23 316.26 1122.59 270.09 1121.19 204.09 1124.45 203.98 1122.09"/><polygon class="cls-2" points="703.13 1143.81 805.33 1140.94 805.41 1140.94 878.83 1142.96 878.75 1145.71 805.37 1143.7 703.21 1146.56 703.13 1143.81"/><path class="cls-3" d="M360.63,803.63v5.85h2.24v-5.85Zm0,45.48h2.24v-5.85h-2.24Zm0,52.85h2.24v-5.85h-2.24Zm0,52.84h2.24V949h-2.24Zm0,52.85h2.24v-5.85h-2.24Zm0,52.85h2.24v-5.85h-2.24Zm0,52.84h2.24v-5.84h-2.24Zm0,52.85h2.24v-5.85h-2.24Zm0-343.5h2.24v-5.85h-2.24Zm0,52.85h2.24v-5.85h-2.24Zm0,52.84h2.24v-5.85h-2.24Zm0,52.85h2.24v-5.85h-2.24Zm0,52.85h2.24v-5.85h-2.24Zm0,52.85h2.24v-5.85h-2.24Zm0,52.84h2.24v-5.85h-2.24Zm0,52.85h2.24v-5.85h-2.24Zm0-356.71h2.24v-5.85h-2.24Zm0,26.42h2.24v-5.85h-2.24Zm0,26.42h2.24v-5.84h-2.24Zm0,26.42h2.24v-5.85h-2.24Zm0,26.42h2.24v-5.85h-2.24Zm0,26.42h2.24v-5.85h-2.24Zm0,26.42h2.24v-5.84h-2.24Zm0,26.42h2.24V1015h-2.24Zm0,26.43h2.24v-5.85h-2.24Zm0,26.42h2.24v-5.85h-2.24Zm0,26.42h2.24v-5.85h-2.24Zm0,26.42h2.24v-5.85h-2.24Zm0,26.43h2.24v-5.85h-2.24Zm0,26.42h2.24v-5.85h-2.24Zm0,26.42h2.24V1200h-2.24Z"/><path class="cls-3" d="M1026.06,440.35h2.24v-7.88h-2.24Zm0,17.8h2.24v-7.88h-2.24Zm0,35.6h2.24v-7.88h-2.24Zm0,35.6h2.24v-7.88h-2.24Zm0,35.61h2.24v-7.88h-2.24Zm0,35.6h2.24v-7.88h-2.24Zm0,35.6h2.24v-7.88h-2.24Zm0,35.61h2.24v-7.88h-2.24Zm0,53.41h2.24V717.3h-2.24Zm0,71.2h2.24V788.5h-2.24Zm0,71.21h2.24v-7.88h-2.24Zm0,71.21h2.24v-7.88h-2.24Zm0,71.2h2.24v-7.88h-2.24Zm0,71.21h2.24v-7.88h-2.24Zm0,71.21h2.24v-7.88h-2.24Zm0-676.46h2.24v-7.88h-2.24Zm0,35.61h2.24v-7.88h-2.24Zm0,35.6h2.24v-7.88h-2.24Zm0,35.6h2.24v-7.88h-2.24Zm0,35.61h2.24V610.5h-2.24Zm0,35.6h2.24V646.1h-2.24Zm0,35.61h2.24v-7.88h-2.24Zm0,71.21h2.24v-7.88h-2.24Zm0,71.2h2.24v-7.88h-2.24Zm0,71.21h2.24v-7.88h-2.24Zm0,71.21h2.24v-7.88h-2.24Zm0,71.2h2.24v-7.88h-2.24Zm0,71.21h2.24V1109h-2.24Zm0,71.21h2.24v-7.88h-2.24Zm0-480.64h2.24v-7.88h-2.24Zm0,35.6h2.24v-7.88h-2.24Zm0,35.6h2.24v-7.88h-2.24Zm0,35.61h2.24v-7.88h-2.24Zm0,35.6h2.24v-7.88h-2.24Zm0,35.6h2.24v-7.88h-2.24Zm0,35.6h2.24v-7.88h-2.24Zm0,35.6h2.24v-7.88h-2.24Zm0,35.61h2.24v-7.88h-2.24Zm0,35.6h2.24v-7.88h-2.24Zm0,35.6h2.24v-7.88h-2.24Zm0,35.6h2.24v-7.88h-2.24Zm0,35.61h2.24v-7.88h-2.24Zm0,35.6h2.24v-7.88h-2.24Zm0,35.6h2.24V1198h-2.24Zm0-969.18v7.88h2.24v-7.88Zm0,25.68h2.24v-7.88h-2.24Zm0,17.8h2.24v-7.88h-2.24Zm0,17.8h2.24v-7.88h-2.24Zm0,17.8h2.24v-7.88h-2.24Zm0,17.8h2.24v-7.88h-2.24Zm0,17.8h2.24v-7.88h-2.24Zm0,17.8h2.24v-7.88h-2.24Zm0,17.8h2.24v-7.88h-2.24Zm0,17.8h2.24v-7.88h-2.24Zm0,17.8h2.24v-7.88h-2.24Z"/><path class="cls-3" d="M1573.28,287.09l6.77,4,1.15-1.92-6.77-4Zm-30.57-18.24,6.77,4,1.15-1.92-6.77-4Zm61.15,36.48,6.77,4,1.14-1.92-6.77-4-1.14,1.93ZM1558,278l6.76,4,1.15-1.92-6.77-4L1558,278Zm30.58,18.24,6.77,4,1.15-1.92-6.77-4Zm31.72,16.32-1.14,1.92,6.76,4,1.15-1.93-6.77-4Z"/><path class="cls-3" d="M1300,123.68l6.77,4,1.15-1.92-6.77-4Zm-30.58-18.24,6.77,4,1.15-1.92-6.77-4Zm61.15,36.48,6.77,4,1.15-1.92-6.77-4-1.15,1.93Zm-45.86-27.36,6.76,4,1.15-1.92-6.77-4-1.15,1.92Zm30.58,18.24,6.77,4,1.15-1.92-6.76-4-1.15,1.92ZM1347,149.12l-1.15,1.93,6.77,4,1.15-1.93Z"/><path class="cls-3" d="M1082.52,41.75l.93,2,7.17-3.27-.93-2Zm-64.79,29.54.93,2,7.17-3.27-.93-2Zm-64.79,29.54.93,2L961,99.6l-.93-2Zm-64.79,29.54.93,2,7.17-3.27-.93-2ZM1122.08,23.7,1114.91,27l.93,2,7.17-3.27Zm-72,32.81.93,2,7.17-3.27-.93-2ZM985.33,86.05l.93,2,7.17-3.27-.93-2Zm-64.79,29.54.93,2,7.17-3.27-.93-2Zm-64.79,29.54.93,2,7.17-3.27-.93-2Zm243-110.79.93,2,7.17-3.27-.93-2Zm-32.39,14.77.93,2,7.17-3.27-.93-2Zm-32.39,14.77.93,2,7.17-3.27-.93-2Zm-32.4,14.77.93,2,7.17-3.27-.93-2ZM969.14,93.42l.93,2,7.17-3.27-.93-2Zm-32.4,14.77.93,2,7.17-3.27-.93-2ZM904.34,123l.93,2,7.17-3.27-.92-2L904.35,123ZM872,137.73l.93,2,7.17-3.27-.93-2Z"/></g></g></g></svg>